<mxfile host="Electron" agent="Mozilla/5.0 (Macintosh; Intel Mac OS X 10_15_7) AppleWebKit/537.36 (KHTML, like Gecko) draw.io/26.0.4 Chrome/128.0.6613.186 Electron/32.2.5 Safari/537.36" version="26.0.4">
  <diagram name="Página-1" id="cIMttX4b04XPgIClPiKR">
    <mxGraphModel dx="2695" dy="1469" grid="1" gridSize="10" guides="1" tooltips="1" connect="1" arrows="1" fold="1" page="1" pageScale="1" pageWidth="827" pageHeight="1169" math="0" shadow="0">
      <root>
        <mxCell id="0" />
        <mxCell id="1" parent="0" />
        <mxCell id="_06hTwNGaNdEUBY55DxQ-3" value="&lt;font face=&quot;Comic Sans MS&quot; style=&quot;font-size: 18px;&quot;&gt;Proceso de compilación.&lt;/font&gt;&lt;div&gt;&lt;font face=&quot;Comic Sans MS&quot;&gt;&amp;nbsp;&lt;font style=&quot;font-size: 18px;&quot;&gt;C/C++.&lt;/font&gt;&lt;/font&gt;&lt;/div&gt;" style="text;html=1;align=center;verticalAlign=middle;whiteSpace=wrap;rounded=0;" vertex="1" parent="1">
          <mxGeometry x="230" y="30" width="280" height="70" as="geometry" />
        </mxCell>
        <mxCell id="_06hTwNGaNdEUBY55DxQ-5" value="&lt;b&gt;Start&lt;/b&gt;" style="strokeWidth=2;html=1;shape=mxgraph.flowchart.start_1;whiteSpace=wrap;" vertex="1" parent="1">
          <mxGeometry x="320" y="110" width="100" height="60" as="geometry" />
        </mxCell>
        <mxCell id="_06hTwNGaNdEUBY55DxQ-12" value="&lt;b&gt;Preprocessor:&lt;/b&gt;&lt;div&gt;- Check preprocessor directives.&lt;/div&gt;&lt;div&gt;- Expands header files into the file which using it.&lt;/div&gt;&lt;div&gt;- Expands macros.&lt;/div&gt;&lt;div&gt;- Remove comments.&lt;/div&gt;&lt;div&gt;&lt;br&gt;&lt;/div&gt;&lt;div&gt;&lt;b&gt;gcc -E main.c -o main.i&lt;/b&gt;&lt;/div&gt;" style="rounded=1;whiteSpace=wrap;html=1;absoluteArcSize=1;arcSize=14;strokeWidth=2;" vertex="1" parent="1">
          <mxGeometry x="235" y="350" width="270" height="110" as="geometry" />
        </mxCell>
        <mxCell id="_06hTwNGaNdEUBY55DxQ-18" value="&lt;b&gt;Compiler:&lt;/b&gt;&lt;div&gt;- Check for syntax errors.&lt;/div&gt;&lt;div&gt;- Takes *.i files, process it and converts it into *.asm or *.s, assembly language file.&lt;/div&gt;&lt;div&gt;&lt;br&gt;&lt;/div&gt;&lt;div&gt;&lt;b&gt;gcc -S main.i -o main.s&lt;/b&gt;&lt;/div&gt;" style="rounded=1;whiteSpace=wrap;html=1;absoluteArcSize=1;arcSize=14;strokeWidth=2;" vertex="1" parent="1">
          <mxGeometry x="235" y="630" width="270" height="110" as="geometry" />
        </mxCell>
        <mxCell id="_06hTwNGaNdEUBY55DxQ-22" value="&lt;b&gt;Assembler:&lt;/b&gt;&lt;div&gt;- Generates relocatable object files to be used by the linker&lt;span style=&quot;background-color: transparent; color: light-dark(rgb(0, 0, 0), rgb(255, 255, 255));&quot;&gt;.&lt;/span&gt;&lt;/div&gt;&lt;div&gt;&lt;span style=&quot;background-color: transparent; color: light-dark(rgb(0, 0, 0), rgb(255, 255, 255));&quot;&gt;-Contains symbols table.&lt;/span&gt;&lt;/div&gt;&lt;div&gt;&lt;br&gt;&lt;/div&gt;&lt;div&gt;&lt;b&gt;gcc -c main.a -o main.o&lt;/b&gt;&lt;/div&gt;" style="rounded=1;whiteSpace=wrap;html=1;absoluteArcSize=1;arcSize=14;strokeWidth=2;" vertex="1" parent="1">
          <mxGeometry x="235" y="910" width="270" height="110" as="geometry" />
        </mxCell>
        <mxCell id="_06hTwNGaNdEUBY55DxQ-32" value="&lt;b&gt;Linker:&lt;/b&gt;&lt;div&gt;- M&lt;span style=&quot;background-color: transparent; color: light-dark(rgb(0, 0, 0), rgb(255, 255, 255));&quot;&gt;erges all the relocatable object files from multiple modules into a single one&lt;/span&gt;&lt;/div&gt;&lt;div&gt;- Contains global symbol table.&lt;/div&gt;&lt;div&gt;- Merges static and dynamic libraries.&lt;/div&gt;&lt;div&gt;&lt;br&gt;&lt;/div&gt;&lt;div&gt;&lt;b&gt;gcc&amp;nbsp; main.o -o executable&lt;/b&gt;&lt;/div&gt;" style="strokeWidth=2;html=1;shape=mxgraph.flowchart.merge_or_storage;whiteSpace=wrap;" vertex="1" parent="1">
          <mxGeometry x="35" y="1202" width="670" height="150" as="geometry" />
        </mxCell>
        <mxCell id="_06hTwNGaNdEUBY55DxQ-47" style="edgeStyle=orthogonalEdgeStyle;rounded=0;orthogonalLoop=1;jettySize=auto;html=1;exitX=0.5;exitY=0.88;exitDx=0;exitDy=0;exitPerimeter=0;entryX=0.5;entryY=0;entryDx=0;entryDy=0;" edge="1" parent="1" source="_06hTwNGaNdEUBY55DxQ-35" target="_06hTwNGaNdEUBY55DxQ-12">
          <mxGeometry relative="1" as="geometry" />
        </mxCell>
        <mxCell id="_06hTwNGaNdEUBY55DxQ-35" value="&lt;b&gt;Code sources files:&lt;/b&gt;&lt;div&gt;&lt;b&gt;&amp;nbsp;*.c / *.cpp.&lt;/b&gt;&lt;/div&gt;" style="strokeWidth=2;html=1;shape=mxgraph.flowchart.multi-document;whiteSpace=wrap;" vertex="1" parent="1">
          <mxGeometry x="300" y="230" width="140" height="70" as="geometry" />
        </mxCell>
        <mxCell id="_06hTwNGaNdEUBY55DxQ-36" value="&lt;b&gt;Executable file.&lt;/b&gt;" style="strokeWidth=2;html=1;shape=mxgraph.flowchart.document2;whiteSpace=wrap;size=0.25;" vertex="1" parent="1">
          <mxGeometry x="320" y="1410" width="100" height="60" as="geometry" />
        </mxCell>
        <mxCell id="_06hTwNGaNdEUBY55DxQ-38" value="&lt;b&gt;End&lt;/b&gt;" style="strokeWidth=2;html=1;shape=mxgraph.flowchart.terminator;whiteSpace=wrap;" vertex="1" parent="1">
          <mxGeometry x="320" y="1520" width="100" height="60" as="geometry" />
        </mxCell>
        <mxCell id="_06hTwNGaNdEUBY55DxQ-49" style="edgeStyle=orthogonalEdgeStyle;rounded=0;orthogonalLoop=1;jettySize=auto;html=1;exitX=0.5;exitY=0.88;exitDx=0;exitDy=0;exitPerimeter=0;entryX=0.5;entryY=0;entryDx=0;entryDy=0;" edge="1" parent="1" source="_06hTwNGaNdEUBY55DxQ-40" target="_06hTwNGaNdEUBY55DxQ-18">
          <mxGeometry relative="1" as="geometry" />
        </mxCell>
        <mxCell id="_06hTwNGaNdEUBY55DxQ-40" value="&lt;b&gt;Intermediate precompiled file:&lt;/b&gt;&lt;div&gt;&lt;b&gt;&amp;nbsp;*.i.&lt;/b&gt;&lt;br&gt;&lt;/div&gt;" style="strokeWidth=2;html=1;shape=mxgraph.flowchart.multi-document;whiteSpace=wrap;" vertex="1" parent="1">
          <mxGeometry x="300" y="510" width="140" height="70" as="geometry" />
        </mxCell>
        <mxCell id="_06hTwNGaNdEUBY55DxQ-51" style="edgeStyle=orthogonalEdgeStyle;rounded=0;orthogonalLoop=1;jettySize=auto;html=1;exitX=0.5;exitY=0.88;exitDx=0;exitDy=0;exitPerimeter=0;entryX=0.5;entryY=0;entryDx=0;entryDy=0;" edge="1" parent="1" source="_06hTwNGaNdEUBY55DxQ-41" target="_06hTwNGaNdEUBY55DxQ-22">
          <mxGeometry relative="1" as="geometry" />
        </mxCell>
        <mxCell id="_06hTwNGaNdEUBY55DxQ-41" value="&lt;div&gt;&lt;b&gt;Assembly language file:&lt;/b&gt;&lt;/div&gt;&lt;div&gt;&lt;b&gt;*.s / *.asm.&amp;nbsp;&lt;/b&gt;&lt;br&gt;&lt;/div&gt;" style="strokeWidth=2;html=1;shape=mxgraph.flowchart.multi-document;whiteSpace=wrap;" vertex="1" parent="1">
          <mxGeometry x="275" y="790" width="190" height="70" as="geometry" />
        </mxCell>
        <mxCell id="_06hTwNGaNdEUBY55DxQ-42" value="&lt;div&gt;&lt;b&gt;Relocatable object files:&amp;nbsp;&lt;/b&gt;&lt;/div&gt;&lt;div&gt;&lt;b&gt;*.o&lt;/b&gt;&lt;br&gt;&lt;/div&gt;" style="strokeWidth=2;html=1;shape=mxgraph.flowchart.multi-document;whiteSpace=wrap;" vertex="1" parent="1">
          <mxGeometry x="260" y="1070" width="220" height="70" as="geometry" />
        </mxCell>
        <mxCell id="_06hTwNGaNdEUBY55DxQ-43" value="&lt;div&gt;&lt;b&gt;Static libraries:&lt;/b&gt;&lt;br&gt;&lt;/div&gt;&lt;div&gt;&lt;b&gt;*.a&lt;/b&gt;&lt;/div&gt;" style="strokeWidth=2;html=1;shape=mxgraph.flowchart.multi-document;whiteSpace=wrap;" vertex="1" parent="1">
          <mxGeometry x="590" y="1080" width="140" height="70" as="geometry" />
        </mxCell>
        <mxCell id="_06hTwNGaNdEUBY55DxQ-44" value="&lt;div&gt;&lt;b&gt;Dynamic libraries:&lt;/b&gt;&lt;div&gt;&lt;b&gt;*.so&lt;/b&gt;&lt;/div&gt;&lt;/div&gt;" style="strokeWidth=2;html=1;shape=mxgraph.flowchart.multi-document;whiteSpace=wrap;" vertex="1" parent="1">
          <mxGeometry x="15" y="1080" width="140" height="70" as="geometry" />
        </mxCell>
        <mxCell id="_06hTwNGaNdEUBY55DxQ-46" style="edgeStyle=orthogonalEdgeStyle;rounded=0;orthogonalLoop=1;jettySize=auto;html=1;exitX=0.5;exitY=1;exitDx=0;exitDy=0;exitPerimeter=0;entryX=0.5;entryY=0;entryDx=0;entryDy=0;entryPerimeter=0;" edge="1" parent="1" source="_06hTwNGaNdEUBY55DxQ-5" target="_06hTwNGaNdEUBY55DxQ-35">
          <mxGeometry relative="1" as="geometry" />
        </mxCell>
        <mxCell id="_06hTwNGaNdEUBY55DxQ-48" style="edgeStyle=orthogonalEdgeStyle;rounded=0;orthogonalLoop=1;jettySize=auto;html=1;exitX=0.5;exitY=1;exitDx=0;exitDy=0;entryX=0.5;entryY=0;entryDx=0;entryDy=0;entryPerimeter=0;" edge="1" parent="1" source="_06hTwNGaNdEUBY55DxQ-12" target="_06hTwNGaNdEUBY55DxQ-40">
          <mxGeometry relative="1" as="geometry" />
        </mxCell>
        <mxCell id="_06hTwNGaNdEUBY55DxQ-50" style="edgeStyle=orthogonalEdgeStyle;rounded=0;orthogonalLoop=1;jettySize=auto;html=1;exitX=0.5;exitY=1;exitDx=0;exitDy=0;entryX=0.5;entryY=0;entryDx=0;entryDy=0;entryPerimeter=0;" edge="1" parent="1" source="_06hTwNGaNdEUBY55DxQ-18" target="_06hTwNGaNdEUBY55DxQ-41">
          <mxGeometry relative="1" as="geometry" />
        </mxCell>
        <mxCell id="_06hTwNGaNdEUBY55DxQ-52" style="edgeStyle=orthogonalEdgeStyle;rounded=0;orthogonalLoop=1;jettySize=auto;html=1;exitX=0.5;exitY=1;exitDx=0;exitDy=0;entryX=0.5;entryY=0;entryDx=0;entryDy=0;entryPerimeter=0;" edge="1" parent="1" source="_06hTwNGaNdEUBY55DxQ-22" target="_06hTwNGaNdEUBY55DxQ-42">
          <mxGeometry relative="1" as="geometry" />
        </mxCell>
        <mxCell id="_06hTwNGaNdEUBY55DxQ-53" style="edgeStyle=orthogonalEdgeStyle;rounded=0;orthogonalLoop=1;jettySize=auto;html=1;exitX=0.5;exitY=0.88;exitDx=0;exitDy=0;exitPerimeter=0;entryX=0.24;entryY=0;entryDx=0;entryDy=0;entryPerimeter=0;" edge="1" parent="1" source="_06hTwNGaNdEUBY55DxQ-44" target="_06hTwNGaNdEUBY55DxQ-32">
          <mxGeometry relative="1" as="geometry" />
        </mxCell>
        <mxCell id="_06hTwNGaNdEUBY55DxQ-54" style="edgeStyle=orthogonalEdgeStyle;rounded=0;orthogonalLoop=1;jettySize=auto;html=1;exitX=0.5;exitY=0.88;exitDx=0;exitDy=0;exitPerimeter=0;entryX=0.796;entryY=-0.02;entryDx=0;entryDy=0;entryPerimeter=0;" edge="1" parent="1" source="_06hTwNGaNdEUBY55DxQ-43" target="_06hTwNGaNdEUBY55DxQ-32">
          <mxGeometry relative="1" as="geometry" />
        </mxCell>
        <mxCell id="_06hTwNGaNdEUBY55DxQ-55" style="edgeStyle=orthogonalEdgeStyle;rounded=0;orthogonalLoop=1;jettySize=auto;html=1;exitX=0.5;exitY=0.88;exitDx=0;exitDy=0;exitPerimeter=0;entryX=0.5;entryY=0;entryDx=0;entryDy=0;entryPerimeter=0;" edge="1" parent="1" source="_06hTwNGaNdEUBY55DxQ-42" target="_06hTwNGaNdEUBY55DxQ-32">
          <mxGeometry relative="1" as="geometry" />
        </mxCell>
        <mxCell id="_06hTwNGaNdEUBY55DxQ-56" style="edgeStyle=orthogonalEdgeStyle;rounded=0;orthogonalLoop=1;jettySize=auto;html=1;exitX=0.5;exitY=1;exitDx=0;exitDy=0;exitPerimeter=0;entryX=0.5;entryY=0;entryDx=0;entryDy=0;entryPerimeter=0;" edge="1" parent="1" source="_06hTwNGaNdEUBY55DxQ-32" target="_06hTwNGaNdEUBY55DxQ-36">
          <mxGeometry relative="1" as="geometry" />
        </mxCell>
        <mxCell id="_06hTwNGaNdEUBY55DxQ-57" style="edgeStyle=orthogonalEdgeStyle;rounded=0;orthogonalLoop=1;jettySize=auto;html=1;entryX=0.5;entryY=0;entryDx=0;entryDy=0;entryPerimeter=0;" edge="1" parent="1" source="_06hTwNGaNdEUBY55DxQ-36" target="_06hTwNGaNdEUBY55DxQ-38">
          <mxGeometry relative="1" as="geometry" />
        </mxCell>
      </root>
    </mxGraphModel>
  </diagram>
</mxfile>
